<svg xmlns="http://www.w3.org/2000/svg" version="1.1" xmlns:xlink="http://www.w3.org/1999/xlink" xmlns:svgjs="http://svgjs.dev/svgjs" width="2000" height="1250" viewBox="0 0 2000 1250"><g transform="matrix(1,0,0,1,0,0)"><svg viewBox="0 0 576 360" data-background-color="#ffffff" preserveAspectRatio="xMidYMid meet" height="1250" width="2000" xmlns="http://www.w3.org/2000/svg" xmlns:xlink="http://www.w3.org/1999/xlink"><defs></defs><g id="tight-bounds" transform="matrix(1,0,0,1,0,0)"><svg viewBox="0 0 576 360" height="360" width="576"><g><svg></svg></g><g><svg viewBox="0 0 576 360" height="360" width="576"><g><path d="M132.115 90l155.885-90 155.885 90v180l-155.885 90-155.885-90z" fill="#000000" data-fill-palette-color="tertiary"></path></g><g transform="matrix(1,0,0,1,184.5518153118671,99)"><svg viewBox="0 0 206.8963693762658 162" height="162" width="206.8963693762658"><g><svg viewBox="0 0 323.26729697584005 253.11851661759346" height="162" width="206.8963693762658"><g><svg viewBox="0 0 176.30366800000004 253.11851661759346" height="253.11851661759346" width="176.30366800000004"><g><svg viewBox="0 0 176.30366800000004 253.11851661759346" height="253.11851661759346" width="176.30366800000004"><g><svg viewBox="0 0 176.30366800000004 160.99884" height="160.99884" width="176.30366800000004"><g transform="matrix(1,0,0,1,0,0)"><svg width="176.30366800000004" viewBox="3.75 -40.5 44.349998474121094 40.5" height="160.99884" data-palette-color="#ffffff"><path d="M6.15 0L3.75 0 3.75-40.5 5.9-40.5 19.65-6.3 19.65-40.5 22.05-40.5 22.05 0 19.9 0 6.15-34.25 6.15 0ZM39.05 0L29.5 0 29.5-40.5 37.85-40.5Q40.65-40.5 42.47-39.73 44.3-38.95 45.32-37.55 46.35-36.15 46.77-34.33 47.2-32.5 47.2-30.4L47.2-30.4Q47.2-28.8 46.82-26.98 46.45-25.15 45.45-23.75 44.45-22.35 42.45-21.85L42.45-21.85Q44.8-21.15 46.02-19.45 47.25-17.75 47.67-15.68 48.1-13.6 48.1-11.8L48.1-11.8Q48.1-9.5 47.77-7.4 47.45-5.3 46.5-3.63 45.55-1.95 43.77-0.98 42 0 39.05 0L39.05 0ZM32.2-20.6L32.2-2.15 38.7-2.15Q42.7-2.15 44.07-4.5 45.45-6.85 45.45-11.75L45.45-11.75Q45.45-14.2 44.87-16.2 44.3-18.2 42.92-19.4 41.55-20.6 39.1-20.6L39.1-20.6 32.2-20.6ZM32.2-38.3L32.2-22.75 39.05-22.75Q41.3-22.75 42.5-23.8 43.7-24.85 44.17-26.58 44.65-28.3 44.65-30.4L44.65-30.4Q44.65-32.65 44.1-34.45 43.55-36.25 41.97-37.27 40.4-38.3 37.2-38.3L37.2-38.3 32.2-38.3Z" opacity="1" transform="matrix(1,0,0,1,0,0)" fill="#ffffff" class="undefined-text-0" data-fill-palette-color="quaternary" id="text-0"></path></svg></g></svg></g><g transform="matrix(1,0,0,1,0,199.00680215184002)"><svg viewBox="0 0 176.30366800000004 54.11171446575344" height="54.11171446575344" width="176.30366800000004"><g transform="matrix(1,0,0,1,0,0)"><svg width="176.30366800000004" viewBox="2.0999999046325684 -40.95000076293945 135.02999877929688 41.45000076293945" height="54.11171446575344" data-palette-color="#ffffff"><path d="M11.85 0.5L11.85 0.5Q8.65 0.5 6.58-0.8 4.5-2.1 3.43-4.45 2.35-6.8 2.1-10L2.1-10 4.45-10.75Q4.8-8.1 5.53-6.05 6.25-4 7.75-2.88 9.25-1.75 11.9-1.75L11.9-1.75Q14.9-1.75 16.63-3.25 18.35-4.75 18.35-8.25L18.35-8.25Q18.35-10.9 16.98-13.03 15.6-15.15 13.1-17.6L13.1-17.6 5.7-24.95Q3.85-26.85 3-28.75 2.15-30.65 2.15-32.65L2.15-32.65Q2.15-36.65 4.63-38.8 7.1-40.95 11.05-40.95L11.05-40.95Q13.1-40.95 14.75-40.43 16.4-39.9 17.63-38.73 18.85-37.55 19.55-35.6 20.25-33.65 20.45-30.8L20.45-30.8 18.15-30.25Q17.95-33.1 17.2-35 16.45-36.9 15-37.83 13.55-38.75 11.1-38.75L11.1-38.75Q8.35-38.75 6.5-37.35 4.65-35.95 4.65-32.85L4.65-32.85Q4.65-31.3 5.28-29.85 5.9-28.4 7.6-26.7L7.6-26.7 14.9-19.5Q17.35-17.1 19.13-14.38 20.9-11.65 20.9-8.4L20.9-8.4Q20.9-5.35 19.75-3.38 18.6-1.4 16.55-0.45 14.5 0.5 11.85 0.5ZM32.25 0.45L32.25 0.45Q29.95 0.45 28.3-0.48 26.65-1.4 25.77-3.83 24.9-6.25 24.9-10.7L24.9-10.7 24.9-18.4Q24.9-22.95 25.8-25.3 26.7-27.65 28.37-28.5 30.05-29.35 32.3-29.35L32.3-29.35Q35-29.35 36.55-28.2 38.1-27.05 38.75-24.53 39.4-22 39.4-17.85L39.4-17.85 39.4-15.1 27.55-15.1 27.55-10.5Q27.55-7.05 28.02-5.1 28.5-3.15 29.55-2.35 30.6-1.55 32.25-1.55L32.25-1.55Q33.3-1.55 34.35-1.9 35.4-2.25 36.1-3.55 36.8-4.85 36.8-7.6L36.8-7.6 36.8-9.75 39.4-9.75 39.4-7.85Q39.4-4.15 37.87-1.85 36.35 0.45 32.25 0.45ZM27.55-18.9L27.55-16.7 36.8-16.7 36.8-18.95Q36.8-21.55 36.52-23.43 36.25-25.3 35.3-26.33 34.35-27.35 32.3-27.35L32.3-27.35Q30.7-27.35 29.62-26.68 28.55-26 28.05-24.18 27.55-22.35 27.55-18.9L27.55-18.9ZM47.4 0L44.75 0 44.75-28.9 47.4-28.9 47.4-25Q48.7-27.15 50.62-28.18 52.55-29.2 54.25-29.2L54.25-29.2Q54.34-29.2 54.47-29.2 54.59-29.2 54.75-29.15L54.75-29.15 54.75-26.4Q54.55-26.5 54.22-26.53 53.9-26.55 53.65-26.55L53.65-26.55Q51.65-26.55 50.07-25.6 48.5-24.65 47.4-22.85L47.4-22.85 47.4 0ZM66.24 0L63.29 0 56.64-28.9 59.34-28.9 64.74-3.35 70.04-28.9 72.59-28.9 66.24 0ZM79.49 0L76.79 0 76.79-28.9 79.49-28.9 79.49 0ZM79.49-32.7L76.79-32.7 76.79-37.3 79.49-37.3 79.49-32.7ZM92.59 0.45L92.59 0.45Q89.34 0.45 87.79-1.07 86.24-2.6 85.76-5.15 85.29-7.7 85.29-10.85L85.29-10.85 85.29-17.65Q85.29-21.9 85.94-24.48 86.59-27.05 88.19-28.2 89.79-29.35 92.59-29.35L92.59-29.35Q95.59-29.35 97.11-28.13 98.64-26.9 99.14-24.78 99.64-22.65 99.64-20L99.64-20 99.64-18.85 97.14-18.85 97.14-20Q97.14-22.95 96.66-24.53 96.19-26.1 95.19-26.73 94.19-27.35 92.59-27.35L92.59-27.35Q90.64-27.35 89.64-26.43 88.64-25.5 88.29-23.45 87.94-21.4 87.94-17.95L87.94-17.95 87.94-10.45Q87.94-5.75 88.86-3.65 89.79-1.55 92.64-1.55L92.64-1.55Q94.59-1.55 95.56-2.4 96.54-3.25 96.84-5.05 97.14-6.85 97.14-9.7L97.14-9.7 97.14-10.8 99.64-10.8 99.64-9.75Q99.64-6.85 99.19-4.55 98.74-2.25 97.24-0.9 95.74 0.45 92.59 0.45ZM111.39 0.45L111.39 0.45Q109.09 0.45 107.44-0.48 105.79-1.4 104.91-3.83 104.04-6.25 104.04-10.7L104.04-10.7 104.04-18.4Q104.04-22.95 104.94-25.3 105.84-27.65 107.51-28.5 109.19-29.35 111.44-29.35L111.44-29.35Q114.14-29.35 115.69-28.2 117.24-27.05 117.89-24.53 118.54-22 118.54-17.85L118.54-17.85 118.54-15.1 106.69-15.1 106.69-10.5Q106.69-7.05 107.16-5.1 107.64-3.15 108.69-2.35 109.74-1.55 111.39-1.55L111.39-1.55Q112.44-1.55 113.49-1.9 114.54-2.25 115.24-3.55 115.94-4.85 115.94-7.6L115.94-7.6 115.94-9.75 118.54-9.75 118.54-7.85Q118.54-4.15 117.01-1.85 115.49 0.45 111.39 0.45ZM106.69-18.9L106.69-16.7 115.94-16.7 115.94-18.95Q115.94-21.55 115.66-23.43 115.39-25.3 114.44-26.33 113.49-27.35 111.44-27.35L111.44-27.35Q109.84-27.35 108.76-26.68 107.69-26 107.19-24.18 106.69-22.35 106.69-18.9L106.69-18.9ZM130.08 0.45L130.08 0.45Q126.68 0.45 124.68-1.78 122.68-4 122.38-7.8L122.38-7.8 124.63-8.45Q124.88-4.8 126.31-3.18 127.73-1.55 130.18-1.55L130.18-1.55Q132.38-1.55 133.58-2.78 134.78-4 134.78-6.25L134.78-6.25Q134.78-7.8 133.76-9.47 132.73-11.15 130.53-13L130.53-13 127.18-15.85Q125.03-17.7 124.03-19.38 123.03-21.05 123.03-23.2L123.03-23.2Q123.03-25.2 123.86-26.55 124.68-27.9 126.16-28.63 127.63-29.35 129.58-29.35L129.58-29.35Q132.83-29.35 134.43-27.3 136.03-25.25 136.13-21.8L136.13-21.8 134.18-21.2Q134.13-23.45 133.56-24.8 132.98-26.15 132.01-26.75 131.03-27.35 129.73-27.35L129.73-27.35Q127.83-27.35 126.66-26.38 125.48-25.4 125.48-23.5L125.48-23.5Q125.48-21.9 126.11-20.73 126.73-19.55 128.43-18L128.43-18 131.88-14.95Q133.18-13.85 134.38-12.6 135.58-11.35 136.36-9.83 137.13-8.3 137.13-6.2L137.13-6.2Q137.13-4.1 136.26-2.63 135.38-1.15 133.81-0.35 132.23 0.45 130.08 0.45Z" opacity="1" transform="matrix(1,0,0,1,0,0)" fill="#ffffff" class="undefined-text-1" data-fill-palette-color="quaternary" id="text-1"></path></svg></g></svg></g></svg></g></svg></g><g transform="matrix(1,0,0,1,214.31163015184006,51.33755582446295)"><svg viewBox="0 0 108.95566682400005 150.44340496866755" height="150.44340496866755" width="108.95566682400005"><g><svg xmlns="http://www.w3.org/2000/svg" xmlns:xlink="http://www.w3.org/1999/xlink" version="1.1" x="0" y="0" viewBox="21.100000381469727 10 54.099998474121094 74.69999694824219" enable-background="new 0 0 100 100" xml:space="preserve" height="150.44340496866755" width="108.95566682400005" class="icon-icon-0" data-fill-palette-color="quaternary" id="icon-0"><g fill="#ffffff" data-fill-palette-color="quaternary"><polyline fill="none" stroke="#FFFFFF" stroke-linejoin="round" stroke-miterlimit="10" points="50.8,10 65.3,64.9 50.8,10    21.1,54.4 65.3,64.9  "></polyline><polygon stroke="#FFFFFF" stroke-linejoin="round" stroke-miterlimit="10" points="22.3,73.2 74.1,64.3 65.3,84.7  " fill="#ffffff" data-fill-palette-color="quaternary"></polygon><polygon fill="none" stroke="#FFFFFF" stroke-linejoin="round" stroke-miterlimit="10" points="58.2,20.3 55.1,26.6 56.6,32.4    60.8,23.9  "></polygon><polygon fill="none" stroke="#FFFFFF" stroke-linejoin="round" stroke-miterlimit="10" points="55.7,17 53.7,21.2 55.1,26.6    58.2,20.3  "></polygon><polygon fill="none" stroke="#FFFFFF" stroke-linejoin="round" stroke-miterlimit="10" points="60.8,23.9 56.6,32.4 58.1,37.8    63.2,27.4  "></polygon><polygon fill="none" stroke="#FFFFFF" stroke-linejoin="round" stroke-miterlimit="10" points="50.7,10 52.4,16.4 53.6,14  "></polygon><polygon fill="none" stroke="#FFFFFF" stroke-linejoin="round" stroke-miterlimit="10" points="53.6,14 52.4,16.4 53.7,21.2    55.7,17  "></polygon><polygon fill="none" stroke="#FFFFFF" stroke-linejoin="round" stroke-miterlimit="10" points="63.2,27.4 58.1,37.8 59.4,43    65.5,30.6  "></polygon><polygon fill="none" stroke="#FFFFFF" stroke-linejoin="round" stroke-miterlimit="10" points="75.2,43.9 73,41 63.9,59.7    65.2,64.9  "></polygon><polygon fill="none" stroke="#FFFFFF" stroke-linejoin="round" stroke-miterlimit="10" points="70.6,37.5 62.4,54.2 63.9,59.7    73,41  "></polygon><polygon fill="none" stroke="#FFFFFF" stroke-linejoin="round" stroke-miterlimit="10" points="68,34 60.9,48.4 62.4,54.2    70.6,37.5  "></polygon><polygon fill="none" stroke="#FFFFFF" stroke-linejoin="round" stroke-miterlimit="10" points="65.5,30.6 59.4,43 60.9,48.4 68,34     "></polygon></g></svg></g></svg></g></svg></g></svg></g></svg></g></svg><rect width="576" height="360" fill="none" stroke="none" visibility="hidden"></rect></g></svg></g></svg>